<svg xmlns="http://www.w3.org/2000/svg" viewBox="0 0 128 128">
  <defs>
    <radialGradient id="bg" cx="50%" cy="45%" r="70%">
      <stop offset="0%" stop-color="#3b0505"/>
      <stop offset="55%" stop-color="#160202"/>
      <stop offset="100%" stop-color="#050203"/>
    </radialGradient>
    <linearGradient id="fire" x1="0" x2="0" y1="1" y2="0">
      <stop offset="0%" stop-color="#ff2a05"/>
      <stop offset="50%" stop-color="#ff7a00"/>
      <stop offset="100%" stop-color="#ffd36a"/>
    </linearGradient>
    <linearGradient id="blood" x1="0" x2="0" y1="0" y2="1">
      <stop offset="0%" stop-color="#ff1c1c"/>
      <stop offset="45%" stop-color="#9f0707"/>
      <stop offset="100%" stop-color="#3d0303"/>
    </linearGradient>
  </defs>
  <rect width="128" height="128" rx="26" fill="url(#bg)"/>
  <path d="M20 102 C16 84 26 79 24 65 C22 50 33 43 35 26 C43 43 36 55 44 70 C53 86 38 92 43 108 Z" fill="url(#fire)" opacity=".88"/>
  <path d="M108 102 C112 84 102 79 104 65 C106 50 95 43 93 26 C85 43 92 55 84 70 C75 86 90 92 85 108 Z" fill="url(#fire)" opacity=".88"/>
  <path d="M30 36 L14 19 M98 36 L114 19 M31 52 L9 45 M97 52 L119 45 M36 72 L15 82 M92 72 L113 82" stroke="#e9d6ba" stroke-width="7" stroke-linecap="round" opacity=".9"/>
  <circle cx="14" cy="19" r="6" fill="#f3e5ca"/>
  <circle cx="114" cy="19" r="6" fill="#f3e5ca"/>
  <circle cx="9" cy="45" r="5" fill="#f3e5ca"/>
  <circle cx="119" cy="45" r="5" fill="#f3e5ca"/>
  <circle cx="15" cy="82" r="5" fill="#f3e5ca"/>
  <circle cx="113" cy="82" r="5" fill="#f3e5ca"/>
  <path d="M39 104 V41 C39 33 45 27 53 27 H75 C83 27 89 33 89 41 V104 Z" fill="#210202" stroke="#5a0808" stroke-width="4"/>
  <path d="M47 100 V45 C47 39 51 36 56 36 H72 C77 36 81 39 81 45 V100 Z" fill="url(#blood)"/>
  <path d="M37 60 H91 L84 76 H44 Z" fill="#6c0505" stroke="#c30d0d" stroke-width="3"/>
  <path d="M45 76 H83 L91 109 H37 Z" fill="#8f0606"/>
  <path d="M31 107 H97 L103 119 H25 Z" fill="#2a0303" stroke="#c51a12" stroke-width="3"/>
  <path d="M53 36 L64 14 L75 36 Z" fill="#c30b0b" stroke="#ff4732" stroke-width="3"/>
  <path d="M50 52 C55 42 61 41 64 31 C67 41 73 42 78 52 C71 49 57 49 50 52 Z" fill="#ff3b16" opacity=".85"/>
</svg>
